<svg xmlns="http://www.w3.org/2000/svg" xmlns:xlink="http://www.w3.org/1999/xlink" viewBox="0 0 1024.2 1024.08"><defs><style>.cls-1{fill:url(#linear-gradient);}.cls-2{fill:url(#linear-gradient-2);}</style><linearGradient id="linear-gradient" x1="512.83" y1="366.37" x2="512.83" y2="653.53" gradientTransform="matrix(1, 0, 0, -1, 0, 1021.91)" gradientUnits="userSpaceOnUse"><stop offset="0" stop-color="#096fd2"/><stop offset="1" stop-color="#0b7fdd"/></linearGradient><linearGradient id="linear-gradient-2" x1="512.1" y1="-2.17" x2="512.1" y2="1021.91" gradientTransform="matrix(1, 0, 0, -1, 0, 1021.91)" gradientUnits="userSpaceOnUse"><stop offset="0" stop-color="#0564c8"/><stop offset="1" stop-color="#0e8ee9"/></linearGradient></defs><g id="Layer_2" data-name="Layer 2"><g id="Ebene_4" data-name="Ebene 4"><polygon class="cls-1" points="411.77 368.38 373.84 460.49 652.87 460.49 614.94 368.38 898.35 511.96 614.94 655.54 652.87 563.43 373.84 563.43 411.47 655.54 127.32 511.96 411.77 368.38"/><path class="cls-2" d="M964.2,1024.08H60a60.18,60.18,0,0,1-60-60V60A60.18,60.18,0,0,1,60,0H964.2a60.18,60.18,0,0,1,60,60V964.08A60.18,60.18,0,0,1,964.2,1024.08ZM508.24,90C277.59,92,91.66,281.23,90,512,88.31,747,276.92,933.79,512,934c231,.12,418-192,422-422C938.15,274.25,746,87.91,508.24,90Z"/></g></g></svg>